<?xml version="1.0" encoding="iso-8859-1"?>
<!-- Generator: Adobe Illustrator 19.0.0, SVG Export Plug-In . SVG Version: 6.00 Build 0)  -->
<svg version="1.1" id="Capa_1" xmlns="http://www.w3.org/2000/svg" xmlns:xlink="http://www.w3.org/1999/xlink" x="0px" y="0px"
	 viewBox="0 0 512.033 512.033" style="enable-background:new 0 0 512.033 512.033;" xml:space="preserve">
<g>
	<g>
		<g>
			<path d="M426.658,459.337c-7.694-107.634-75.039-199.867-92.023-221.559c17.573-31.864,26.11-67.923,24.689-104.284l13.617,6.827
				c8.114,4.085,18.005,1.09,22.492-6.808L422.016,87c4.115-7.03,2.626-15.995-3.541-21.316l-52.117-45.55
				c-8.151-7.137-17.887-12.227-28.4-14.846l-20.142-5.033c-0.235-0.06-0.463,0.005-0.699-0.034
				c-0.231-0.039-0.422-0.171-0.659-0.191c-0.331,0.017-0.661,0.054-0.987,0.112c-0.574,0.004-1.146,0.069-1.707,0.193
				c-0.56,0.138-1.104,0.335-1.622,0.589c-0.434,0.197-0.849,0.43-1.243,0.698c-0.497,0.356-0.953,0.767-1.358,1.224
				c-0.325,0.345-0.619,0.718-0.879,1.114c-0.318,0.515-0.579,1.064-0.777,1.636c-0.154,0.28-0.291,0.57-0.41,0.867
				c-0.058,0.232,0.006,0.455-0.032,0.687c-0.04,0.237-0.172,0.432-0.193,0.676c-0.425,5.09-1.277,11.819-2.625,19.46
				c-15.723,4.907-32.141,7.221-48.608,6.849c-16.462,0.371-32.875-1.94-48.595-6.844c-1.353-7.645-2.209-14.377-2.639-19.469
				c-0.208-2.493-1.5-4.769-3.534-6.226s-4.605-1.947-7.032-1.341l-20.142,5.025c-10.501,2.638-20.231,7.716-28.4,14.821
				L93.508,65.658c-6.088,5.355-7.577,14.249-3.567,21.296l26.667,46.583c4.497,7.851,14.341,10.825,22.433,6.779l13.65-6.808
				c-1.432,36.373,7.087,72.447,24.64,104.336c-17.092,21.859-84.273,114.028-91.956,221.472c-0.181,2.473,0.726,4.901,2.484,6.65
				c2.033,2.025,47.317,46.042,143.408,46.042c7.84,0,16.046-0.308,24.566-0.943c8.675,0.654,17,0.976,24.976,0.968
				c96.05-0.004,141.342-44.021,143.367-46.05C425.933,464.236,426.84,461.809,426.658,459.337z M368.906,324.569
				c17.075,32.916,29.402,68.085,36.614,104.458c-3.181,3.897-7.941,6.162-12.971,6.173c-7.33-0.021-13.822-4.736-16.108-11.7
				c-0.653-1.713-0.978-3.534-0.958-5.367c0-4.713-3.82-8.533-8.533-8.533s-8.533,3.82-8.533,8.533
				c0.008,1.947-0.357,3.878-1.075,5.687c-2.351,6.821-8.777,11.394-15.992,11.379c-6.75,0.022-12.875-3.95-15.609-10.122
				c-2.734-6.172-1.56-13.377,2.992-18.361c2.191-2.422,2.809-5.882,1.592-8.912c-1.216-3.032-4.057-5.104-7.317-5.333
				c-8.944-0.575-15.879-8.042-15.792-17.004c0.011-9.421,7.645-17.056,17.067-17.067c3.027-0.016,6.003,0.781,8.617,2.308
				c3.35,1.982,7.617,1.447,10.375-1.3c1.333-1.3,2.766-2.496,4.284-3.575c2.981-2.165,4.234-6,3.108-9.508
				c-0.516-1.614-0.781-3.298-0.783-4.992c0.011-9.421,7.645-17.056,17.067-17.067C367.607,324.328,368.261,324.429,368.906,324.569
				z M320.29,228.532c-3.784-1.149-6.707-4.168-7.732-7.987s-0.008-7.897,2.692-10.786c2.19-2.417,2.811-5.871,1.6-8.9h0
				c-1.217-3.025-4.048-5.095-7.3-5.338c-6.284-0.457-11.082-5.802-10.86-12.099s5.384-11.291,11.685-11.305
				c2.134-0.01,4.232,0.543,6.083,1.604c3.343,1.909,7.55,1.348,10.275-1.371c1.049-0.991,2.163-1.911,3.333-2.754
				c2.865-2.188,4.043-5.942,2.942-9.375c-0.348-1.093-0.528-2.232-0.533-3.379c-0.004-5.685,4.064-10.557,9.658-11.568
				C341.781,174.396,334.28,202.987,320.29,228.532z M169.898,145.273c5.595,1.011,9.663,5.883,9.66,11.568
				c-0.005,1.147-0.185,2.286-0.533,3.379c-1.126,3.52,0.142,7.365,3.142,9.525c1.115,0.78,2.163,1.651,3.133,2.604
				c2.725,2.72,6.932,3.282,10.275,1.371c1.826-1.048,3.895-1.601,6-1.604c6.317-0.031,11.521,4.951,11.766,11.263
				c0.245,6.312-4.558,11.683-10.858,12.141c-3.254,0.237-6.088,2.308-7.3,5.337c-1.213,3.029-0.592,6.484,1.6,8.9
				c2.703,2.891,3.72,6.974,2.688,10.795c-1.032,3.821-3.965,6.838-7.756,7.976C177.737,202.981,170.246,174.393,169.898,145.273z
				 M161.231,291.996c5.778,2.866,9.438,8.754,9.452,15.204c-0.003,1.694-0.267,3.378-0.783,4.992
				c-1.127,3.508,0.127,7.343,3.108,9.508c1.518,1.079,2.95,2.274,4.284,3.575c2.754,2.755,7.026,3.29,10.375,1.3
				c6.071-3.547,13.696-3.009,19.209,1.355s7.786,11.663,5.726,18.385c-2.06,6.723-8.031,11.495-15.043,12.022
				c-3.258,0.232-6.099,2.302-7.317,5.333c-1.218,3.031-0.6,6.491,1.592,8.913c4.681,5.127,5.777,12.583,2.77,18.84
				c-3.007,6.257-9.515,10.059-16.442,9.607c-6.927-0.452-12.885-5.069-15.053-11.664c-0.653-1.713-0.978-3.534-0.959-5.367
				c0-4.713-3.821-8.533-8.533-8.533s-8.533,3.82-8.533,8.533c0.008,1.947-0.357,3.878-1.075,5.688
				c-2.004,5.836-7.037,10.109-13.121,11.142c-6.083,1.032-12.244-1.342-16.062-6.19C125.97,358.63,141.558,324.15,161.231,291.996z
				 M247.483,494.396c-7.204,0.369-14.171,0.519-20.829,0.398l20.829-45.811V494.396z M247.483,407.752l-39.185,86.182
				c-61.48-5.201-95.93-29.708-105.573-37.602c1.327-14.632,3.734-29.146,7.203-43.422c14.156,8.895,32.675,6.204,43.714-6.353
				c10.874,12.368,29.034,15.198,43.155,6.724s20.168-25.83,14.37-41.244c15.755-7.671,23.144-26.025,17.1-42.473
				s-23.56-25.649-40.533-21.294c0.008-0.354,0.016-0.712,0.016-1.071c-0.029-12.325-6.688-23.682-17.43-29.726
				c10.586-16.297,19.091-27.379,22.426-31.585c13.899-2.239,24.135-14.21,24.187-28.289c0-2.926-0.453-5.834-1.342-8.621
				c12.266-6.843,17.804-21.539,13.103-34.776s-18.268-21.147-32.103-18.72c-0.709-14.488-12.098-26.18-26.562-27.27
				c0.244-4.829,0.571-7.768,0.588-7.9c0.389-3.121-0.97-6.203-3.536-8.021c-2.566-1.818-5.924-2.077-8.739-0.675l-26.925,13.437
				L104.75,78.508l52.15-45.55c6.129-5.332,13.429-9.142,21.308-11.121l10.708-2.671c3.554,26.058,16.832,94.919,58.567,114.434
				V407.752z M211.522,46.299c14.583,3.401,29.521,5.046,44.495,4.901c14.981,0.146,29.927-1.5,44.517-4.906
				c-7.348,29.237-21.173,62.501-44.517,72.404C232.714,108.808,218.883,75.541,211.522,46.299z M264.55,494.529V133.735
				c41.8-19.491,55.01-88.53,58.556-114.568l10.719,2.679c7.875,1.96,15.169,5.771,21.275,11.117h0l52.142,45.492l-26.65,46.608
				l-26.883-13.479c-0.224-0.112-0.467-0.098-0.696-0.188c-0.562-0.222-1.147-0.381-1.744-0.473
				c-0.549-0.096-1.107-0.135-1.664-0.117c-0.259-0.031-0.519-0.049-0.779-0.055c-0.256,0.072-0.509,0.156-0.756,0.254
				c-2.198,0.491-4.109,1.839-5.309,3.744c-0.147,0.234-0.374,0.387-0.501,0.64c-0.082,0.248-0.15,0.501-0.206,0.756
				c-0.405,1.072-0.601,2.212-0.577,3.358c0.009,0.265-0.092,0.506-0.058,0.773c0.017,0.133,0.346,3.088,0.59,7.938
				c-14.467,1.088-25.858,12.783-26.564,27.274c-1.673-0.29-3.368-0.436-5.067-0.438c-13.113,0.004-24.564,8.875-27.844,21.571
				c-3.28,12.696,2.44,26.003,13.91,32.358c-0.889,2.787-1.342,5.695-1.342,8.621c0.052,14.072,10.278,26.04,24.17,28.287
				c15.194,19.575,28.832,40.309,40.791,62.013c-15.852,3.289-27.224,17.244-27.244,33.434c0,0.358,0.009,0.717,0.017,1.071
				c-16.986-4.393-34.536,4.805-40.588,21.273c-6.052,16.468,1.366,34.842,17.155,42.493c-5.775,15.422,0.287,32.769,14.411,41.238
				c14.124,8.469,32.281,5.643,43.164-6.717c10.375,11.87,27.569,15.008,41.468,7.568c0.316,2.692,0.628,5.385,0.866,8.095
				C397.741,465.816,350.708,499.071,264.55,494.529z"/>
			<path d="M153.616,358.4c2.27,0.022,4.453-0.87,6.058-2.475c1.605-1.605,2.497-3.789,2.475-6.058
				c-0.013-1.116-0.245-2.219-0.683-3.246c-0.78-2.141-2.467-3.828-4.608-4.608c-2.076-0.923-4.44-0.952-6.538-0.08
				s-3.746,2.566-4.558,4.688c-0.437,1.027-0.667,2.13-0.68,3.246c-0.022,2.27,0.87,4.453,2.475,6.058
				C149.163,357.53,151.347,358.422,153.616,358.4z"/>
			<path d="M366.95,392.533c2.27,0.022,4.453-0.87,6.058-2.475c1.605-1.605,2.497-3.788,2.475-6.058
				c-0.013-1.116-0.245-2.219-0.683-3.246c-0.78-2.141-2.467-3.828-4.608-4.608c-2.076-0.923-4.44-0.952-6.538-0.08
				c-2.098,0.871-3.746,2.566-4.558,4.688c-0.437,1.027-0.668,2.13-0.68,3.246c-0.022,2.27,0.87,4.453,2.475,6.058
				C362.497,391.663,364.68,392.555,366.95,392.533z"/>
		</g>
	</g>
</g>
<g>
</g>
<g>
</g>
<g>
</g>
<g>
</g>
<g>
</g>
<g>
</g>
<g>
</g>
<g>
</g>
<g>
</g>
<g>
</g>
<g>
</g>
<g>
</g>
<g>
</g>
<g>
</g>
<g>
</g>
</svg>
