<svg id="Layer_1" enable-background="new 0 0 512 512" height="512" viewBox="0 0 512 512" width="512" xmlns="http://www.w3.org/2000/svg"><g><path d="m479.741 495.06-48.2-369.533c-.975-7.471-7.34-13.06-14.874-13.06h-81.4v-33.2c0-43.708-35.559-79.267-79.267-79.267s-79.267 35.559-79.267 79.267v33.2h-81.4c-7.534 0-13.899 5.589-14.874 13.06l-48.2 369.533c-.558 4.28.754 8.593 3.603 11.837 2.848 3.244 6.955 5.103 11.271 5.103h417.733c4.316 0 8.424-1.859 11.271-5.103 2.849-3.244 4.162-7.557 3.604-11.837zm-273.008-415.793c0-27.166 22.101-49.267 49.267-49.267s49.267 22.101 49.267 49.267v33.2h-98.533v-33.2zm-142.516 402.733 44.287-339.533h68.229v33.2c0 8.284 6.716 15 15 15s15-6.716 15-15v-33.2h98.533v33.2c0 8.284 6.716 15 15 15s15-6.716 15-15v-33.2h68.229l44.288 339.533z"/><path d="m320.267 241h-64.267c-43.708 0-79.267 35.559-79.267 79.267v58.053l-11.673 11.673c-5.858 5.858-5.858 15.355 0 21.213 5.857 5.858 15.355 5.858 21.213 0l11.673-11.673h58.054c43.708 0 79.267-35.559 79.267-79.267v-64.266c0-8.284-6.716-15-15-15zm-15 79.267c0 27.166-22.101 49.267-49.267 49.267h-28.054l38.66-38.66c5.858-5.858 5.858-15.355 0-21.213-5.857-5.858-15.355-5.858-21.213 0l-38.66 38.66v-28.054c0-27.166 22.101-49.267 49.267-49.267h49.267z"/></g></svg>